HIERARCHY
ROOT Hips
{
	OFFSET 0.000000 0.000000 0.000000
	CHANNELS 6 Xposition Yposition Zposition Zrotation Yrotation Xrotation 
	JOINT LHipJoint
	{
		OFFSET 0.000000 0.000000 0.000000
		CHANNELS 3 Zrotation Yrotation Xrotation
		JOINT LeftUpLeg
		{
			OFFSET 1.363060 -1.794630 0.839290
			CHANNELS 3 Zrotation Yrotation Xrotation
			JOINT LeftLeg
			{
				OFFSET 2.448110 -6.726130 0.000000
				CHANNELS 3 Zrotation Yrotation Xrotation
				JOINT LeftFoot
				{
					OFFSET 2.562200 -7.039590 0.000000
					CHANNELS 3 Zrotation Yrotation Xrotation
					JOINT LeftToeBase
					{
						OFFSET 0.157640 -0.433110 2.322550
						CHANNELS 3 Zrotation Yrotation Xrotation
						End Site
						{
							OFFSET 0.000000 0.000000 0.000000
						}
					}
				}
			}
		}
	}
	JOINT RHipJoint
	{
		OFFSET 0.000000 0.000000 0.000000
		CHANNELS 3 Zrotation Yrotation Xrotation
		JOINT RightUpLeg
		{
			OFFSET -1.305520 -1.794630 0.839290
			CHANNELS 3 Zrotation Yrotation Xrotation
			JOINT RightLeg
			{
				OFFSET -2.542530 -6.985550 0.000000
				CHANNELS 3 Zrotation Yrotation Xrotation
				JOINT RightFoot
				{
					OFFSET -2.568260 -7.056230 0.000000
					CHANNELS 3 Zrotation Yrotation Xrotation
					JOINT RightToeBase
					{
						OFFSET -0.164730 -0.452590 2.363150
						CHANNELS 3 Zrotation Yrotation Xrotation
						End Site
						{
							OFFSET 0.000000 0.000000 0.000000
						}
					}
				}
			}
		}
	}
	JOINT LowerBack
	{
		OFFSET 0.000000 0.000000 0.000000
		CHANNELS 3 Zrotation Yrotation Xrotation
		JOINT Spine
		{
			OFFSET 0.028270 2.035590 -0.193380
			CHANNELS 3 Zrotation Yrotation Xrotation
			JOINT Spine1
			{
				OFFSET 0.056720 2.048850 -0.042750
				CHANNELS 3 Zrotation Yrotation Xrotation
				JOINT Neck
				{
					OFFSET 0.000000 0.000000 0.000000
					CHANNELS 3 Zrotation Yrotation Xrotation
					JOINT Neck1
					{
						OFFSET -0.054170 1.746240 0.172020
						CHANNELS 3 Zrotation Yrotation Xrotation
						JOINT Head
						{
							OFFSET 0.104070 1.761360 -0.123970
							CHANNELS 3 Zrotation Yrotation Xrotation
							End Site
							{
								OFFSET 0.000000 0.000000 0.000000
							}
						}
					}
				}
				JOINT LeftShoulder
				{
					OFFSET 0.000000 0.000000 0.000000
					CHANNELS 3 Zrotation Yrotation Xrotation
					JOINT LeftArm
					{
						OFFSET 3.362410 1.200890 -0.311210
						CHANNELS 3 Zrotation Yrotation Xrotation
						JOINT LeftForeArm
						{
							OFFSET 4.983000 -0.000000 -0.000000
							CHANNELS 3 Zrotation Yrotation Xrotation
							JOINT LeftHand
							{
								OFFSET 3.483560 -0.000000 -0.000000
								CHANNELS 3 Zrotation Yrotation Xrotation
								JOINT LeftFingerBase
								{
									OFFSET 0.000000 0.000000 0.000000
									CHANNELS 3 Zrotation Yrotation Xrotation
									JOINT LeftHandIndex1
									{
										OFFSET 0.715260 -0.000000 -0.000000
										CHANNELS 3 Zrotation Yrotation Xrotation
										End Site
										{
											OFFSET 0.000000 0.000000 0.000000
										}
									}
								}
								JOINT LThumb
								{
									OFFSET 0.000000 0.000000 0.000000
									CHANNELS 3 Zrotation Yrotation Xrotation
									End Site
									{
										OFFSET 0.000000 0.000000 0.000000
									}
								}
							}
						}
					}
				}
				JOINT RightShoulder
				{
					OFFSET 0.000000 0.000000 0.000000
					CHANNELS 3 Zrotation Yrotation Xrotation
					JOINT RightArm
					{
						OFFSET -3.136600 1.374050 -0.404650
						CHANNELS 3 Zrotation Yrotation Xrotation
						JOINT RightForeArm
						{
							OFFSET -5.241900 -0.000000 -0.000000
							CHANNELS 3 Zrotation Yrotation Xrotation
							JOINT RightHand
							{
								OFFSET -3.444170 -0.000000 -0.000000
								CHANNELS 3 Zrotation Yrotation Xrotation
								JOINT RightFingerBase
								{
									OFFSET 0.000000 0.000000 0.000000
									CHANNELS 3 Zrotation Yrotation Xrotation
									JOINT RightHandIndex1
									{
										OFFSET -0.622530 -0.000000 -0.000000
										CHANNELS 3 Zrotation Yrotation Xrotation
										End Site
										{
											OFFSET 0.000000 0.000000 0.000000
										}
									}
								}
								JOINT RThumb
								{
									OFFSET 0.000000 0.000000 0.000000
									CHANNELS 3 Zrotation Yrotation Xrotation
									End Site
									{
										OFFSET 0.000000 0.000000 0.000000
									}
								}
							}
						}
					}
				}
			}
		}
	}
}
MOTION
Frames: 10
Frame Time: 0.008333
-25.931272 17.830793 -1.157402 18.212382 89.769923 26.129214 -9.447521 -2.900858 0.899539 -4.388204 -5.861824 -10.604414 0.024881 9.423389 23.380336 -5.291194 16.418993 -1.104410 0.611700 -5.005900 -13.925400 9.056640 2.369788 1.432219 3.200473 5.588342 -7.481319 0.425234 -7.749160 17.541259 5.728024 -19.707409 -0.515224 -0.762900 5.577700 -15.564000 -2.630963 -1.029774 -7.932463 0.244820 -1.680978 -3.124866 3.304049 -0.587643 4.223825 2.178069 1.987856 -4.628727 3.894033 2.193736 16.344244 -2.287400 2.200300 6.435000 -8.435592 -3.495248 -0.056541 -80.895487 -6.072632 13.400547 1.696434 -9.015365 -0.736286 -2.148415 -2.589119 17.413333 15.962585 40.130124 11.949700 -7.125000 0.000000 0.000000 -32.537300 72.027000 -21.562800 14.633063 4.881841 -0.677168 72.388608 2.229655 9.460778 -4.756014 9.724963 -1.558761 0.024473 -4.352825 18.589301 -23.395983 29.744357 -14.465000 7.125000 0.000000 0.000000 4.193700 6.364900 4.644600 
-25.928931 17.833579 -1.151384 12.801040 89.720361 20.755737 -9.447862 -2.930127 0.913539 -4.352566 -5.644874 -10.744532 0.041924 9.425716 23.437537 -5.216309 16.232427 -1.069068 0.577700 -4.867200 -13.530200 9.059779 2.337895 1.449945 3.208663 5.746250 -7.464378 0.439002 -7.723312 17.450647 5.750430 -19.784607 -0.464752 -0.742000 5.502600 -15.347800 -2.664134 -0.972910 -7.951004 0.231770 -1.605147 -3.237988 3.306632 -0.519849 3.774785 2.244577 1.992973 -3.637361 3.928353 2.133084 16.039157 -2.306100 2.167000 6.113500 -8.447130 -3.520265 -0.055693 -80.855095 -5.458719 13.573317 1.707088 -9.064692 -0.731691 -2.134710 -2.612092 17.319319 15.907483 40.277850 11.935700 -7.125000 0.000000 0.000000 -32.961900 72.132300 -21.934600 14.610107 4.797883 -0.733400 72.534881 1.605277 9.180056 -4.789884 9.785662 -1.560594 0.008983 -4.338508 18.664597 -23.242754 29.803874 -14.376400 7.125000 0.000000 0.000000 4.294700 6.374600 4.757700 
-25.931383 17.833022 -1.158182 8.653215 89.843074 16.584055 -9.454345 -2.950710 0.893605 -4.313508 -5.638184 -10.767928 0.056175 9.448131 23.512119 -5.208755 16.206795 -1.091554 0.568400 -4.828600 -13.420300 9.037836 2.329110 1.458199 3.255020 5.563998 -7.477928 0.447505 -7.699615 17.372108 5.726259 -19.738423 -0.402802 -0.725500 5.442300 -15.174500 -2.534957 -1.032010 -7.794252 0.238994 -1.685087 -3.183283 3.202281 -0.580408 3.948309 2.379982 2.000578 -4.487802 3.780518 2.203255 16.352466 -2.367800 2.215100 6.430900 -8.434736 -3.513178 -0.065036 -80.839386 -5.861916 13.284381 1.682689 -8.996025 -0.736722 -2.168464 -2.596983 17.542116 16.172147 40.361989 12.159800 -7.125000 0.000000 0.000000 -32.795200 72.292600 -21.927200 14.626031 4.878178 -0.699403 72.516436 2.073029 8.996271 -4.758007 9.721390 -1.562430 -0.020729 -4.353257 18.814559 -23.227520 29.887274 -14.397400 7.125000 0.000000 0.000000 4.328400 6.476500 4.802000 
-25.931160 17.835363 -1.162083 -1.939350 89.921138 5.985896 -9.505425 -2.980908 0.890838 -4.248060 -5.712731 -10.735949 0.064928 9.454478 23.550247 -5.286554 16.358373 -1.202592 0.608700 -4.993700 -13.890500 8.989832 2.295327 1.477102 3.359304 5.313944 -7.554830 0.449868 -7.692043 17.317807 5.745658 -19.853995 -0.241039 -0.815500 5.762400 -16.096500 -2.519182 -1.094591 -7.767562 0.266915 -1.765674 -3.225560 3.238954 -0.608851 3.757960 2.343703 2.102173 -3.937521 3.888634 2.282984 16.031505 -2.327800 2.237700 6.197700 -8.433201 -3.542384 -0.054797 -80.903345 -5.613510 13.161655 1.700128 -9.027815 -0.736213 -2.193436 -2.578022 17.541108 16.705892 40.217887 12.529100 -7.125000 0.000000 0.000000 -31.805800 72.362600 -21.274300 14.618966 4.824810 -0.718033 72.495399 1.846240 9.255559 -4.775866 9.757267 -1.565710 0.026049 -4.365155 18.634611 -23.495009 29.879777 -14.585400 7.125000 0.000000 0.000000 4.160300 6.537900 4.618600 
-25.929934 17.839709 -1.163421 -4.209457 89.901479 3.820869 -9.521021 -2.998553 0.857978 -4.228689 -5.843637 -10.768124 0.068774 9.463385 23.581873 -5.290127 16.359364 -1.222063 0.565500 -4.816400 -13.385600 8.985648 2.304283 1.454390 3.387149 5.228630 -7.654687 0.449507 -7.678335 17.263467 5.810555 -20.076425 -0.081350 -0.906200 6.066200 -16.976700 -2.483870 -1.045925 -8.041614 0.265002 -1.690458 -3.131300 3.223586 -0.589862 4.233580 2.262399 2.123112 -4.305894 3.918610 2.301758 15.802305 -2.295800 2.212500 6.167200 -8.435551 -3.550991 -0.028275 -80.888775 -6.134046 13.114421 1.654424 -8.934166 -0.731058 -2.208363 -2.553173 17.709692 16.759728 40.035163 12.531300 -7.125000 0.000000 0.000000 -31.314400 72.228000 -20.838700 14.631286 4.835721 -0.672208 72.409486 2.356774 8.922616 -4.744545 9.699559 -1.566969 0.013967 -4.383473 18.708162 -23.549214 29.963147 -14.657800 7.125000 0.000000 0.000000 4.149000 6.657100 4.613400 
-25.929823 17.841047 -1.162640 -2.002745 89.865980 6.043287 -9.510205 -2.995100 0.862712 -4.241148 -5.855424 -10.770668 0.070032 9.461851 23.591138 -5.215935 16.191902 -1.172806 0.529400 -4.662500 -12.948300 9.001874 2.306047 1.453879 3.364851 5.286312 -7.659319 0.449845 -7.674379 17.250502 5.832401 -20.137279 -0.060351 -0.941000 6.178400 -17.302800 -2.508666 -1.031986 -8.009824 0.268360 -1.677711 -3.154938 3.265991 -0.576739 4.134024 2.223144 2.172543 -4.178267 3.992591 2.342058 15.645679 -2.263400 2.222000 6.089000 -8.437131 -3.564258 -0.027601 -80.892228 -6.052956 12.974163 1.633386 -8.899788 -0.724018 -2.197955 -2.544261 17.812505 16.556620 39.890458 12.343300 -7.125000 0.000000 0.000000 -31.261000 72.035200 -20.674000 14.629550 4.823538 -0.679312 72.405184 2.290424 8.685728 -4.733865 9.686793 -1.567922 -0.014222 -4.389413 18.636487 -23.351833 30.181101 -14.598200 7.125000 0.000000 0.000000 4.316300 6.844100 4.812900 
-25.930046 17.838037 -1.164201 -2.674253 89.874068 5.280676 -9.521765 -2.979528 0.871810 -4.249172 -6.002578 -10.608776 0.064396 9.465243 23.581087 -5.272935 16.323115 -1.241116 0.521500 -4.628100 -12.850700 8.992022 2.294161 1.460479 3.380441 5.307729 -7.570546 0.449149 -7.688848 17.276573 5.836099 -20.151018 -0.107216 -0.965600 6.256500 -17.530400 -2.482962 -1.011174 -7.908238 0.268928 -1.653266 -3.151071 3.272552 -0.563841 4.077935 2.042199 2.226990 -4.070438 4.177626 2.406221 15.656107 -2.153100 2.255500 6.068100 -8.446935 -3.570541 -0.024030 -80.889476 -6.039168 13.087389 1.619807 -8.879116 -0.719938 -2.190106 -2.543580 17.713196 16.494672 39.794705 12.275200 -7.125000 0.000000 0.000000 -31.134500 71.934000 -20.519100 14.621402 4.821304 -0.678999 72.392139 2.258238 8.408658 -4.743055 9.698583 -1.570065 -0.041290 -4.377203 18.562115 -23.084412 30.253654 -14.431600 7.125000 0.000000 0.000000 4.495200 6.847800 5.013800 
-25.929154 17.836143 -1.167990 3.109451 89.987413 11.039851 -9.510295 -2.954181 0.884994 -4.270143 -6.146231 -10.577209 0.059246 9.457520 23.557164 -5.300637 16.396519 -1.216418 0.536100 -4.691300 -13.030200 9.023167 2.287317 1.485263 3.326600 5.475375 -7.499248 0.449203 -7.698387 17.313777 5.872172 -20.204833 -0.293179 -0.890700 6.015400 -16.829300 -2.459965 -1.032529 -7.784989 0.263600 -1.701726 -3.275536 3.250773 -0.552958 3.544770 2.150891 2.256690 -3.211105 4.175188 2.404297 15.550434 -2.187700 2.267700 5.864600 -8.455145 -3.580084 -0.037164 -80.900964 -5.362430 13.319536 1.660634 -8.972123 -0.716575 -2.159565 -2.564292 17.468219 16.314972 39.770709 12.129000 -7.125000 0.000000 0.000000 -31.342100 71.854700 -20.611000 14.600394 4.764563 -0.734930 72.488934 1.609882 8.352673 -4.793992 9.786343 -1.570055 -0.062877 -4.332646 18.405779 -22.639157 30.194578 -14.087600 7.125000 0.000000 0.000000 4.749100 6.642000 5.283800 
-25.929489 17.833579 -1.165761 3.436580 89.903167 11.319164 -9.497229 -2.956881 0.875101 -4.298984 -6.036862 -10.548508 0.059524 9.462979 23.550786 -5.317158 16.448489 -1.178547 0.586400 -4.903200 -13.632600 9.019927 2.293502 1.459254 3.305979 5.652801 -7.394766 0.453566 -7.712446 17.351981 5.832132 -20.065060 -0.439894 -0.806300 5.730500 -16.004400 -2.471739 -0.953454 -7.806376 0.239078 -1.584864 -3.145237 3.203953 -0.519469 4.002339 2.272302 2.244256 -3.761870 3.997051 2.385971 15.265254 -2.272600 2.216500 5.865800 -8.453208 -3.605637 -0.009605 -80.808567 -5.947986 13.459348 1.660342 -8.957704 -0.725774 -2.160719 -2.573843 17.429115 16.169551 39.909237 12.057500 -7.125000 0.000000 0.000000 -31.804500 71.920300 -20.977000 14.615887 4.794733 -0.682250 72.498119 2.287684 8.072136 -4.791591 9.741306 -1.571024 -0.090220 -4.314020 18.340749 -22.392216 30.074461 -13.866700 7.125000 0.000000 0.000000 4.882800 6.451900 5.419300 
-25.927817 17.833357 -1.165315 10.745481 89.915521 18.572919 -9.458091 -2.930110 0.890086 -4.346826 -5.917879 -10.560717 0.060299 9.473699 23.564378 -5.268046 16.352377 -1.134733 0.622100 -5.047300 -14.043500 9.051811 2.305753 1.474523 3.284105 5.712285 -7.268653 0.457827 -7.699377 17.327146 5.829747 -20.034900 -0.516177 -0.768200 5.596700 -15.618800 -2.547295 -0.972432 -7.659592 0.257601 -1.627722 -3.180620 3.310875 -0.524053 3.791054 2.408561 2.319043 -3.451270 3.853264 2.452947 14.926488 -2.364600 2.223700 5.697000 -8.439957 -3.628313 -0.003516 -80.894582 -5.782491 13.143167 1.641930 -8.927570 -0.721689 -2.167998 -2.560485 17.665218 16.194811 39.890435 12.069100 -7.125000 0.000000 0.000000 -31.729300 71.909700 -20.917400 14.621339 4.768099 -0.701114 72.439781 2.084608 8.372685 -4.837500 9.803888 -1.573284 -0.038208 -4.296698 18.015972 -22.492277 29.858499 -13.858400 7.125000 0.000000 0.000000 4.774700 6.231900 5.282300 
